<?xml version="1.0" encoding="UTF-8" standalone="no"?>
<!-- Created with Inkscape (http://www.inkscape.org/) -->

<svg
   xmlns:dc="http://purl.org/dc/elements/1.1/"
   xmlns:cc="http://creativecommons.org/ns#"
   xmlns:rdf="http://www.w3.org/1999/02/22-rdf-syntax-ns#"
   xmlns:svg="http://www.w3.org/2000/svg"
   xmlns="http://www.w3.org/2000/svg"
   xmlns:sodipodi="http://sodipodi.sourceforge.net/DTD/sodipodi-0.dtd"
   xmlns:inkscape="http://www.inkscape.org/namespaces/inkscape"
   version="1.1"
   id="svg2"
   xml:space="preserve"
   width="484.65652"
   height="97.866394"
   viewBox="0 0 484.65653 97.866392"
   sodipodi:docname="Code-for-NL-letters.svg"
   inkscape:version="0.92.4 (5da689c313, 2019-01-14)"><metadata
     id="metadata8"><rdf:RDF><cc:Work
         rdf:about=""><dc:format>image/svg+xml</dc:format><dc:type
           rdf:resource="http://purl.org/dc/dcmitype/StillImage" /><dc:title></dc:title></cc:Work></rdf:RDF></metadata><defs
     id="defs6" /><sodipodi:namedview
     pagecolor="#ffffff"
     bordercolor="#666666"
     borderopacity="1"
     objecttolerance="10"
     gridtolerance="10"
     guidetolerance="10"
     inkscape:pageopacity="0"
     inkscape:pageshadow="2"
     inkscape:window-width="1600"
     inkscape:window-height="830"
     id="namedview4"
     showgrid="false"
     fit-margin-top="0"
     fit-margin-left="0"
     fit-margin-right="0"
     fit-margin-bottom="0"
     inkscape:zoom="1.370362"
     inkscape:cx="120.16593"
     inkscape:cy="35.458873"
     inkscape:window-x="0"
     inkscape:window-y="0"
     inkscape:window-maximized="1"
     inkscape:current-layer="g10" /><g
     id="g10"
     inkscape:groupmode="layer"
     inkscape:label="Logo-green"
     transform="matrix(1.3333333,0,0,-1.3333333,-304.98439,49.637759)"><g
       id="g1120"
       transform="translate(252.0383,-14.77168)"
       inkscape:export-xdpi="138"
       inkscape:export-ydpi="138"
       style="fill:#000000;stroke:#000000;stroke-opacity:1"><path
         d="M 0,0 V -3.5 C 0,-4.899 -0.2,-6.067 -0.6,-7 -1,-7.935 -1.5,-8.667 -2.1,-9.2 c -0.667,-0.534 -1.384,-0.917 -2.15,-1.15 -0.767,-0.234 -1.484,-0.35 -2.15,-0.35 -2.334,0 -3.95,0.7 -4.85,2.1 -0.9,1.4 -1.35,3.133 -1.35,5.201 V 33 c 0,2.4 0.415,4.383 1.25,5.95 0.833,1.566 2.516,2.35 5.05,2.35 1.933,0 3.466,-0.734 4.6,-2.2 C -0.567,37.633 0,35.9 0,33.9 v -3.4 h 10.2 v 4 c 0,2.466 -0.417,4.75 -1.25,6.85 -0.834,2.1 -1.984,3.916 -3.45,5.45 -3,3.133 -6.9,4.7 -11.7,4.7 -2.467,0 -4.717,-0.417 -6.75,-1.25 -2.034,-0.834 -3.784,-1.984 -5.25,-3.45 -1.467,-1.467 -2.6,-3.2 -3.4,-5.2 -0.8,-2 -1.2,-4.167 -1.2,-6.5 V -4.1 c 0,-3.267 0.516,-5.95 1.55,-8.049 1.033,-2.101 2.35,-3.818 3.95,-5.151 1.6,-1.334 3.4,-2.267 5.4,-2.8 2,-0.533 3.965,-0.799 5.9,-0.799 2.266,0 4.383,0.449 6.35,1.349 1.965,0.901 3.683,2.115 5.15,3.651 1.466,1.532 2.616,3.282 3.45,5.25 0.833,1.964 1.25,4.049 1.25,6.25 L 10.2,0 Z"
         style="fill:#000000;stroke:#000000;stroke-width:1;stroke-linecap:butt;stroke-linejoin:miter;stroke-miterlimit:10;stroke-dasharray:none;stroke-opacity:1"
         id="path1122"
         inkscape:connector-curvature="0" /></g><g
       id="g1124"
       transform="translate(269.9382,-18.27168)"
       inkscape:export-xdpi="138"
       inkscape:export-ydpi="138"
       style="fill:#000000;stroke:#000000;stroke-opacity:1"><path
         d="m 0,0 c 0,-3 0.5,-5.567 1.5,-7.7 1,-2.134 2.333,-3.9 4,-5.3 1.6,-1.467 3.416,-2.567 5.45,-3.3 2.032,-0.732 4.083,-1.099 6.15,-1.099 2.066,0 4.115,0.367 6.15,1.099 2.033,0.733 3.883,1.833 5.55,3.3 1.6,1.4 2.9,3.166 3.9,5.3 1,2.133 1.5,4.7 1.5,7.7 v 37.6 c 0,2.866 -0.5,5.4 -1.5,7.6 -1,2.2 -2.3,4.033 -3.9,5.5 -1.667,1.4 -3.517,2.466 -5.55,3.2 C 21.215,54.633 19.166,55 17.1,55 15.033,55 12.982,54.633 10.95,53.9 8.916,53.166 7.1,52.1 5.5,50.7 3.833,49.233 2.5,47.4 1.5,45.2 0.5,43 0,40.466 0,37.6 Z m 10.2,37.6 c 0,2.466 0.683,4.283 2.05,5.45 1.365,1.166 2.982,1.75 4.85,1.75 1.865,0 3.483,-0.584 4.85,-1.75 C 23.315,41.883 24,40.066 24,37.6 V 0 c 0,-2.467 -0.685,-4.284 -2.05,-5.45 -1.367,-1.167 -2.985,-1.75 -4.85,-1.75 -1.868,0 -3.485,0.583 -4.85,1.75 C 10.883,-4.284 10.2,-2.467 10.2,0 Z"
         style="fill:#000000;stroke:#000000;stroke-width:1;stroke-linecap:butt;stroke-linejoin:miter;stroke-miterlimit:10;stroke-dasharray:none;stroke-opacity:1"
         id="path1126"
         inkscape:connector-curvature="0" /></g><g
       id="g1128"
       transform="translate(327.3372,-35.07148)"
       inkscape:export-xdpi="138"
       inkscape:export-ydpi="138"
       style="fill:#000000;stroke:#000000;stroke-opacity:1"><path
         d="m 0,0 c 6.066,0 10.716,1.583 13.95,4.75 3.234,3.166 4.851,8.083 4.851,14.75 v 33.3 c 0,5.866 -1.518,10.4 -4.551,13.6 -3.034,3.2 -7.484,4.8 -13.35,4.8 H -14.199 V 0 Z m 0.7,61.6 c 3,0 5.066,-0.767 6.2,-2.3 1.133,-1.534 1.701,-3.7 1.701,-6.5 V 18.5 C 8.601,15.433 8,13.183 6.801,11.75 5.601,10.315 3.566,9.6 0.7,9.6 H -4 v 52 z"
         style="fill:#000000;stroke:#000000;stroke-width:1;stroke-linecap:butt;stroke-linejoin:miter;stroke-miterlimit:10;stroke-dasharray:none;stroke-opacity:1"
         id="path1130"
         inkscape:connector-curvature="0" /></g><g
       id="g1132"
       transform="translate(386.137,-35.07148)"
       inkscape:export-xdpi="138"
       inkscape:export-ydpi="138"
       style="fill:#000000;stroke:#000000;stroke-opacity:1"><path
         d="m 0,0 v 10.2 h -20.2 v 20.9 h 17.599 v 9.6 H -20.2 V 61.6 H 0 v 9.6 H -30.4 V 0 Z"
         style="fill:#000000;stroke:#000000;stroke-width:1;stroke-linecap:butt;stroke-linejoin:miter;stroke-miterlimit:10;stroke-dasharray:none;stroke-opacity:1"
         id="path1134"
         inkscape:connector-curvature="0" /></g><g
       id="g1136"
       transform="translate(422.2356,-35.07148)"
       inkscape:export-xdpi="138"
       inkscape:export-ydpi="138"
       style="fill:#000000;stroke:#000000;stroke-opacity:1"><path
         d="m 0,0 v 42.7 h 7.6 v 8 H 0 v 7.4 c 0,2.333 1,3.5 3,3.5 h 4.6 v 9.6 H 2.899 c -1.667,0 -3.284,-0.234 -4.849,-0.7 -1.568,-0.467 -2.95,-1.267 -4.151,-2.4 -1.266,-1.134 -2.266,-2.55 -3,-4.25 -0.734,-1.7 -1.099,-3.785 -1.099,-6.25 v -6.9 h -5 v -8 h 5 V 0 Z"
         style="fill:#000000;stroke:#000000;stroke-width:1;stroke-linecap:butt;stroke-linejoin:miter;stroke-miterlimit:10;stroke-dasharray:none;stroke-opacity:1"
         id="path1138"
         inkscape:connector-curvature="0" /></g><g
       id="g1140"
       transform="translate(432.0334,-18.07148)"
       inkscape:export-xdpi="138"
       inkscape:export-ydpi="138"
       style="fill:#000000;stroke:#000000;stroke-opacity:1"><path
         d="m 0,0 c 0,-2.067 0.133,-3.967 0.4,-5.7 0.266,-1.735 0.766,-3.267 1.5,-4.6 1.201,-2.2 2.915,-3.968 5.15,-5.3 2.233,-1.335 4.95,-2 8.15,-2 3.2,0 5.916,0.665 8.151,2 2.232,1.332 3.949,3.1 5.149,5.3 0.733,1.333 1.233,2.865 1.5,4.6 0.266,1.733 0.4,3.633 0.4,5.7 v 16.7 c 0,2.066 -0.134,3.966 -0.4,5.7 -0.267,1.733 -0.767,3.266 -1.5,4.6 -1.2,2.2 -2.917,3.966 -5.149,5.3 -2.235,1.333 -4.951,2 -8.151,2 -3.2,0 -5.917,-0.667 -8.15,-2 C 4.815,30.966 3.101,29.2 1.9,27 1.166,25.666 0.666,24.133 0.4,22.4 0.133,20.666 0,18.766 0,16.7 Z m 10.2,18.3 c 0,1.933 0.45,3.383 1.35,4.35 0.9,0.966 2.116,1.45 3.65,1.45 1.533,0 2.75,-0.484 3.651,-1.45 C 19.75,21.683 20.2,20.233 20.2,18.3 V -1.6 c 0,-1.934 -0.45,-3.384 -1.349,-4.35 C 17.95,-6.917 16.733,-7.4 15.2,-7.4 c -1.534,0 -2.75,0.483 -3.65,1.45 -0.9,0.966 -1.35,2.416 -1.35,4.35 z"
         style="fill:#000000;stroke:#000000;stroke-width:1;stroke-linecap:butt;stroke-linejoin:miter;stroke-miterlimit:10;stroke-dasharray:none;stroke-opacity:1"
         id="path1142"
         inkscape:connector-curvature="0" /></g><g
       id="g1144"
       transform="translate(480.134,-35.07148)"
       inkscape:export-xdpi="138"
       inkscape:export-ydpi="138"
       style="fill:#000000;stroke:#000000;stroke-opacity:1"><path
         d="m 0,0 v 30.1 c 0,2.066 0.332,3.8 1,5.2 0.665,1.4 1.532,2.533 2.6,3.4 1,0.865 2.115,1.483 3.349,1.85 1.234,0.366 2.383,0.55 3.45,0.55 1.066,0 2.101,-0.2 3.101,-0.6 V 51.3 C 10.565,51.3 8.1,50.766 6.1,49.7 4.1,48.633 2.065,47.166 0,45.3 v 5.4 H -10.2 V 0 Z"
         style="fill:#000000;stroke:#000000;stroke-width:1;stroke-linecap:butt;stroke-linejoin:miter;stroke-miterlimit:10;stroke-dasharray:none;stroke-opacity:1"
         id="path1146"
         inkscape:connector-curvature="0" /></g><g
       id="g1148"
       transform="translate(526.7317,-35.07148)"
       inkscape:export-xdpi="138"
       inkscape:export-ydpi="138"
       style="fill:#000000;stroke:#000000;stroke-opacity:1"><path
         d="M 0,0 V 42.8 H 0.2 L 15.801,0 H 25.4 V 71.2 H 15.2 V 28.3 H 15 L -0.399,71.2 h -9.8 V 0 Z"
         style="fill:#000000;stroke:#000000;stroke-width:1;stroke-linecap:butt;stroke-linejoin:miter;stroke-miterlimit:10;stroke-dasharray:none;stroke-opacity:1"
         id="path1150"
         inkscape:connector-curvature="0" /></g><g
       id="g1152"
       transform="translate(591.7307,-35.07148)"
       inkscape:export-xdpi="138"
       inkscape:export-ydpi="138"
       style="fill:#000000;stroke:#000000;stroke-opacity:1"><path
         d="m 0,0 v 10.2 h -20.2 v 61 H -30.4 V 0 Z"
         style="fill:#000000;stroke:#000000;stroke-width:1;stroke-linecap:butt;stroke-linejoin:miter;stroke-miterlimit:10;stroke-dasharray:none;stroke-opacity:1"
         id="path1154"
         inkscape:connector-curvature="0" /></g></g></svg>